HIERARCHY
ROOT Hips
{
	OFFSET 0.000000 0.000000 0.000000
	CHANNELS 6 Xposition Yposition Zposition Zrotation Yrotation Xrotation 
	JOINT LHipJoint
	{
		OFFSET 0.000000 0.000000 0.000000
		CHANNELS 3 Zrotation Yrotation Xrotation
		JOINT LeftUpLeg
		{
			OFFSET 1.363060 -1.794630 0.839290
			CHANNELS 3 Zrotation Yrotation Xrotation
			JOINT LeftLeg
			{
				OFFSET 2.448110 -6.726130 0.000000
				CHANNELS 3 Zrotation Yrotation Xrotation
				JOINT LeftFoot
				{
					OFFSET 2.562200 -7.039590 0.000000
					CHANNELS 3 Zrotation Yrotation Xrotation
					JOINT LeftToeBase
					{
						OFFSET 0.157640 -0.433110 2.322550
						CHANNELS 3 Zrotation Yrotation Xrotation
						End Site
						{
							OFFSET 0.000000 0.000000 0.000000
						}
					}
				}
			}
		}
	}
	JOINT RHipJoint
	{
		OFFSET 0.000000 0.000000 0.000000
		CHANNELS 3 Zrotation Yrotation Xrotation
		JOINT RightUpLeg
		{
			OFFSET -1.305520 -1.794630 0.839290
			CHANNELS 3 Zrotation Yrotation Xrotation
			JOINT RightLeg
			{
				OFFSET -2.542530 -6.985550 0.000000
				CHANNELS 3 Zrotation Yrotation Xrotation
				JOINT RightFoot
				{
					OFFSET -2.568260 -7.056230 0.000000
					CHANNELS 3 Zrotation Yrotation Xrotation
					JOINT RightToeBase
					{
						OFFSET -0.164730 -0.452590 2.363150
						CHANNELS 3 Zrotation Yrotation Xrotation
						End Site
						{
							OFFSET 0.000000 0.000000 0.000000
						}
					}
				}
			}
		}
	}
	JOINT LowerBack
	{
		OFFSET 0.000000 0.000000 0.000000
		CHANNELS 3 Zrotation Yrotation Xrotation
		JOINT Spine
		{
			OFFSET 0.028270 2.035590 -0.193380
			CHANNELS 3 Zrotation Yrotation Xrotation
			JOINT Spine1
			{
				OFFSET 0.056720 2.048850 -0.042750
				CHANNELS 3 Zrotation Yrotation Xrotation
				JOINT Neck
				{
					OFFSET 0.000000 0.000000 0.000000
					CHANNELS 3 Zrotation Yrotation Xrotation
					JOINT Neck1
					{
						OFFSET -0.054170 1.746240 0.172020
						CHANNELS 3 Zrotation Yrotation Xrotation
						JOINT Head
						{
							OFFSET 0.104070 1.761360 -0.123970
							CHANNELS 3 Zrotation Yrotation Xrotation
							End Site
							{
								OFFSET 0.000000 0.000000 0.000000
							}
						}
					}
				}
				JOINT LeftShoulder
				{
					OFFSET 0.000000 0.000000 0.000000
					CHANNELS 3 Zrotation Yrotation Xrotation
					JOINT LeftArm
					{
						OFFSET 3.362410 1.200890 -0.311210
						CHANNELS 3 Zrotation Yrotation Xrotation
						JOINT LeftForeArm
						{
							OFFSET 4.983000 -0.000000 -0.000000
							CHANNELS 3 Zrotation Yrotation Xrotation
							JOINT LeftHand
							{
								OFFSET 3.483560 -0.000000 -0.000000
								CHANNELS 3 Zrotation Yrotation Xrotation
								JOINT LeftFingerBase
								{
									OFFSET 0.000000 0.000000 0.000000
									CHANNELS 3 Zrotation Yrotation Xrotation
									JOINT LeftHandIndex1
									{
										OFFSET 0.715260 -0.000000 -0.000000
										CHANNELS 3 Zrotation Yrotation Xrotation
										End Site
										{
											OFFSET 0.000000 0.000000 0.000000
										}
									}
								}
								JOINT LThumb
								{
									OFFSET 0.000000 0.000000 0.000000
									CHANNELS 3 Zrotation Yrotation Xrotation
									End Site
									{
										OFFSET 0.000000 0.000000 0.000000
									}
								}
							}
						}
					}
				}
				JOINT RightShoulder
				{
					OFFSET 0.000000 0.000000 0.000000
					CHANNELS 3 Zrotation Yrotation Xrotation
					JOINT RightArm
					{
						OFFSET -3.136600 1.374050 -0.404650
						CHANNELS 3 Zrotation Yrotation Xrotation
						JOINT RightForeArm
						{
							OFFSET -5.241900 -0.000000 -0.000000
							CHANNELS 3 Zrotation Yrotation Xrotation
							JOINT RightHand
							{
								OFFSET -3.444170 -0.000000 -0.000000
								CHANNELS 3 Zrotation Yrotation Xrotation
								JOINT RightFingerBase
								{
									OFFSET 0.000000 0.000000 0.000000
									CHANNELS 3 Zrotation Yrotation Xrotation
									JOINT RightHandIndex1
									{
										OFFSET -0.622530 -0.000000 -0.000000
										CHANNELS 3 Zrotation Yrotation Xrotation
										End Site
										{
											OFFSET 0.000000 0.000000 0.000000
										}
									}
								}
								JOINT RThumb
								{
									OFFSET 0.000000 0.000000 0.000000
									CHANNELS 3 Zrotation Yrotation Xrotation
									End Site
									{
										OFFSET 0.000000 0.000000 0.000000
									}
								}
							}
						}
					}
				}
			}
		}
	}
}
MOTION
Frames: 10
Frame Time: 0.008333
25.599463 17.026462 -0.202540 -52.486499 77.466625 -59.868449 0.871167 -1.486980 -0.453009 -0.271793 1.824179 -16.972957 -1.158393 3.425134 8.997094 -1.957214 12.707874 -4.317704 0.055600 1.522000 4.186400 -6.545953 5.312780 -7.946293 34.089992 -15.429325 28.277450 -0.041969 -4.959830 7.904768 -0.782958 11.165185 -16.354057 -0.079300 -1.816200 4.997900 13.359072 3.264694 13.073785 0.998596 5.814409 -1.710923 -6.074748 2.977127 2.801817 -0.285645 0.095244 -19.560504 4.338382 -0.195420 8.607028 -0.963500 0.181200 10.890700 6.474497 0.106604 0.273090 -90.291141 17.872168 25.184347 9.187418 -17.308044 -1.611281 0.276461 0.565411 27.172489 0.529145 -22.690915 -0.214400 -7.125000 0.000000 0.000000 -17.620700 7.521800 15.956600 -5.259523 0.357169 1.098351 77.815233 19.335125 36.761981 -32.104097 45.234389 -11.563846 1.058476 -2.180014 -9.868908 -13.339145 -34.431910 7.539900 7.125000 0.000000 0.000000 21.207400 -61.435200 -8.704200 
25.818890 16.982863 -0.229559 -54.409619 77.303115 -61.819212 0.893288 -1.447340 -0.445372 0.333589 0.697206 -16.595106 -1.262994 2.771861 7.236026 -1.945706 12.667149 -4.246998 0.006300 0.511900 1.406600 -6.478324 5.353112 -7.981560 34.313247 -15.673688 29.065473 -0.006118 -4.999097 8.000873 -0.821866 11.143335 -16.730685 -0.104800 -2.087400 5.747200 13.742199 3.173111 12.922622 1.033770 5.696487 -1.703953 -6.099103 2.927325 2.944380 -0.315786 0.044551 -19.747594 4.396999 -0.244340 8.653391 -0.924000 0.165900 10.957300 6.460238 0.140749 0.277765 -90.405354 18.219600 23.879715 9.001860 -17.029096 -1.554237 0.264173 0.600015 28.002441 1.545073 -23.585107 -0.654400 -7.125000 0.000000 0.000000 -16.963200 6.581100 15.625700 -5.230531 0.339808 1.082547 77.493423 19.742959 36.587730 -32.596373 45.599508 -11.865254 1.066671 -2.163407 -10.054398 -13.437492 -34.707765 7.656000 7.125000 0.000000 0.000000 21.343500 -61.723400 -8.908900 
26.025830 16.937422 -0.245729 -54.600520 76.740142 -61.949870 0.909298 -1.403145 -0.460241 1.327578 0.028106 -16.452277 -1.283587 2.268597 5.982316 -1.918253 12.438035 -4.470884 0.004000 -0.410500 -1.128000 -6.485482 5.310288 -7.993857 35.058265 -15.293549 29.579641 0.026722 -5.146011 8.425387 -0.886135 10.743083 -17.361960 -0.060500 -1.586600 4.364400 14.070693 3.264460 12.968317 1.084662 5.869279 -1.728567 -6.066496 3.002571 2.854111 -0.258621 0.124708 -19.763324 4.335756 -0.161484 8.582608 -0.962800 0.194000 10.928000 6.479801 0.130305 0.284858 -90.493042 18.527533 22.784952 8.858784 -16.815526 -1.511945 0.260118 0.619715 28.702239 2.168796 -24.121098 -0.938900 -7.125000 0.000000 0.000000 -16.567100 6.010800 15.415800 -5.184797 0.314756 1.063735 77.211441 20.162701 36.431213 -32.808001 45.722705 -11.980129 1.047257 -2.147443 -10.082321 -13.870389 -34.045861 7.747500 7.125000 0.000000 0.000000 20.351400 -61.228600 -8.236000 
26.227552 16.880826 -0.255555 -52.779753 75.924898 -59.803118 0.900640 -1.384067 -0.500537 2.406917 -0.089887 -16.580540 -1.253400 1.895962 5.134977 -1.874096 12.072828 -4.930886 0.013800 -0.757600 -2.082000 -6.565710 5.201111 -7.976459 35.911247 -14.395176 29.672972 0.019025 -5.470783 9.379016 -0.934993 10.627887 -17.833981 -0.029500 -1.108300 3.047000 14.211952 3.597808 12.823223 1.114544 6.309339 -1.773514 -6.013996 3.205211 2.765678 -0.099596 0.127589 -19.725121 4.116788 -0.238411 8.387369 -1.138800 0.132800 10.804700 6.521713 0.096567 0.292230 -90.547691 18.776671 21.638054 8.785274 -16.723701 -1.499046 0.296341 0.562237 29.269918 0.371952 -22.744138 -0.154200 -7.125000 0.000000 0.000000 -17.710100 7.473900 16.063700 -5.131635 0.266481 1.041650 77.082031 20.507151 36.201907 -32.931647 45.777744 -12.030735 1.002914 -2.132203 -9.976920 -14.659825 -32.531286 7.816500 7.125000 0.000000 0.000000 18.383400 -60.008100 -6.871300 
26.440940 16.832826 -0.278070 -52.944568 75.729922 -59.917497 0.909301 -1.385698 -0.510497 2.726986 -0.191455 -16.724543 -1.229778 1.768904 4.847387 -1.655543 10.920055 -4.904376 0.000700 -0.167100 -0.459200 -6.537499 5.192239 -7.985793 36.236862 -14.064716 30.155729 0.019939 -5.733782 10.143883 -0.979372 10.391748 -18.252808 -0.025200 -1.025700 2.819500 14.272411 3.629687 12.694263 1.124892 6.332768 -1.779300 -5.969764 3.213322 2.839766 -0.151360 -0.066406 -19.893457 4.262803 -0.477937 8.370616 -1.074400 0.039600 10.833500 6.504191 0.127882 0.288988 -90.612293 18.923018 20.553111 8.654348 -16.525208 -1.462455 0.302186 0.560491 29.916808 0.337026 -22.724961 -0.140700 -7.125000 0.000000 0.000000 -17.730900 7.493000 16.077600 -5.125716 0.265817 1.027706 76.993023 20.834830 35.932572 -33.220749 45.985680 -12.209698 0.995902 -2.124123 -10.000240 -14.914549 -32.323285 7.900100 7.125000 0.000000 0.000000 17.971700 -59.874800 -6.653900 
26.655966 16.788306 -0.305294 -52.805316 75.839597 -59.794857 0.893293 -1.420388 -0.515243 2.587678 -0.129592 -16.942786 -1.203488 1.829907 4.999152 -1.440627 9.812112 -3.952465 0.016500 -0.828400 -2.276700 -6.481836 5.220415 -8.005221 36.092547 -13.875849 30.768136 0.011960 -5.950071 10.796789 -1.018262 10.114414 -18.609428 -0.020300 -0.919800 2.528100 14.039322 3.632314 12.566472 1.114697 6.283318 -1.766416 -5.848666 3.183626 2.936727 -0.359728 -0.023148 -19.973984 4.529365 -0.335117 8.295278 -0.863100 0.113100 10.806400 6.469436 0.162051 0.296606 -90.668923 18.984053 19.543642 8.451356 -16.214170 -1.404851 0.311178 0.559343 30.745409 0.270949 -22.756366 -0.115000 -7.125000 0.000000 0.000000 -17.768500 7.463600 16.126300 -5.127891 0.271235 1.027068 76.878786 21.116923 35.730951 -33.698411 46.344714 -12.522757 1.019543 -2.118700 -10.212401 -14.782937 -33.253756 8.056100 7.125000 0.000000 0.000000 18.786400 -60.723200 -7.349700 
26.877338 16.744605 -0.332518 -52.182205 75.957153 -59.224204 0.845871 -1.459574 -0.497680 2.399106 -0.235984 -16.970184 -1.190839 2.018723 5.502397 -1.247777 8.790003 -4.432159 0.006000 0.500500 1.375400 -6.424238 5.248596 -8.032261 35.958175 -13.541970 31.520448 0.003096 -6.143723 11.408876 -1.053716 9.701253 -18.932221 -0.007200 -0.547600 1.504700 13.728749 3.689665 12.510158 1.097475 6.318432 -1.775014 -5.754299 3.193582 2.937707 -0.359309 -0.026520 -20.090918 4.548949 -0.334594 8.304036 -0.859200 0.116700 10.844200 6.459184 0.162594 0.297974 -90.719108 19.068880 18.392513 8.246636 -15.901366 -1.348978 0.326535 0.552015 31.708879 -0.004284 -22.699894 -0.003300 -7.125000 0.000000 0.000000 -17.938700 7.531400 16.272900 -5.114436 0.280955 1.020677 76.776250 21.112156 35.527509 -34.270536 46.753904 -12.889346 1.027857 -2.111486 -10.483122 -15.062702 -33.849783 8.346700 7.125000 0.000000 0.000000 18.950400 -61.347100 -7.698200 
27.107204 16.701211 -0.353089 -50.969537 75.863336 -58.118564 0.808813 -1.479785 -0.497401 2.347497 -0.255635 -16.926305 -1.131181 2.398986 6.530461 -1.214286 8.590412 -3.391273 0.054400 -1.505000 -4.139400 -6.396286 5.238043 -8.046096 36.084502 -12.936877 32.146552 -0.031884 -6.484357 12.445328 -1.091134 9.352275 -19.260845 -0.001900 0.282600 -0.776500 13.440571 3.847554 12.487779 1.087094 6.501123 -1.787454 -5.658377 3.274268 2.930256 -0.264155 -0.143718 -20.308527 4.463148 -0.519432 8.408401 -0.961200 0.039300 10.965400 6.466149 0.155088 0.290079 -90.705383 19.086016 17.151414 8.017162 -15.550700 -1.289026 0.348933 0.526918 32.816328 -0.691053 -22.206389 0.271200 -7.125000 0.000000 0.000000 -18.383300 8.045800 16.527100 -5.100530 0.290180 1.008019 76.836021 20.993812 35.218929 -34.540858 46.937436 -13.063369 1.010164 -2.109967 -10.428744 -15.556934 -33.631966 8.558000 7.125000 0.000000 0.000000 18.256300 -61.258800 -7.367000 
27.345769 16.660171 -0.381131 -50.477636 76.018766 -58.033347 0.741131 -1.480344 -0.392401 2.001969 -0.410725 -16.856358 -1.066509 2.969953 8.073508 -1.087038 7.888830 -3.545584 0.000000 -0.002400 -0.006700 -6.304146 5.275029 -7.995524 35.923522 -12.709570 33.054909 -0.060492 -6.773725 13.335207 -1.113449 8.951843 -19.450678 -0.032900 1.171700 -3.221300 12.833052 3.696486 13.605825 1.121782 6.536677 -2.154989 -5.413201 3.179298 1.004026 -0.341803 0.116052 -18.906089 4.667168 -0.167955 8.297861 -0.800500 0.221500 10.695300 6.483698 -0.023210 0.264009 -90.901000 20.610117 15.919436 7.907097 -15.352934 -1.259419 0.360821 0.549118 33.833463 0.073821 -23.092122 -0.032200 -7.125000 0.000000 0.000000 -17.879900 7.139300 16.357600 -5.146248 0.492609 1.008334 77.129356 19.316079 35.389464 -35.062032 47.188340 -13.314680 1.015598 -2.102907 -10.036984 -15.712410 -32.960795 8.491600 7.125000 0.000000 0.000000 17.554200 -60.671200 -6.827900 
27.578398 16.620973 -0.407946 -50.370828 76.019075 -58.092260 0.746384 -1.514337 -0.431620 1.787814 -0.400822 -16.974486 -0.957440 3.615402 9.788512 -1.069218 7.795750 -2.770187 0.000200 0.094600 0.260000 -6.253326 5.283782 -8.040160 36.146491 -12.327419 33.676884 -0.107237 -7.151154 14.449456 -1.122487 8.532460 -19.542336 -0.053300 1.490500 -4.099500 12.825720 3.746098 13.263792 1.095895 6.500843 -2.005593 -5.465303 3.203764 1.755717 -0.273255 -0.136733 -19.608520 4.604603 -0.522843 8.329822 -0.894800 0.059400 10.836100 6.467554 0.038260 0.273751 -90.802159 19.847576 14.713557 7.642814 -14.942478 -1.191363 0.390360 0.509454 35.168702 -1.135887 -22.306612 0.452900 -7.125000 0.000000 0.000000 -18.654300 7.964000 16.832000 -5.135807 0.445229 1.011713 77.272783 19.568465 34.884620 -35.394387 47.454288 -13.531788 0.998067 -2.094910 -9.792762 -15.945528 -32.223835 8.431200 7.125000 0.000000 0.000000 16.785400 -60.034300 -6.263100 
